<?xml version="1.0" encoding="utf-8"?>
<!-- Generator: Adobe Illustrator 16.0.4, SVG Export Plug-In . SVG Version: 6.00 Build 0)  -->
<!DOCTYPE svg PUBLIC "-//W3C//DTD SVG 1.1//EN" "http://www.w3.org/Graphics/SVG/1.1/DTD/svg11.dtd">
<svg version="1.1" xmlns="http://www.w3.org/2000/svg" xmlns:xlink="http://www.w3.org/1999/xlink" x="0px" y="0px"
	 width="820.021px" height="532.046px" viewBox="0 0 820.021 532.046" enable-background="new 0 0 820.021 532.046"
	 xml:space="preserve">
<g id="background">
</g>
<g id="Layer_1">
	<g>
		<line fill="#231F20" stroke="#FFFFFF" stroke-width="3" stroke-miterlimit="10" x1="0" y1="156.085" x2="813.44" y2="156.085"/>
		
			<line fill="#231F20" stroke="#FFFFFF" stroke-width="3" stroke-miterlimit="10" x1="2.245" y1="299.55" x2="817.997" y2="299.55"/>
		<g>
			<path fill="#FFFFFF" d="M35.697,530.884c-5.521,0-8.718-2.906-9.59-8.428L0.824,335.888c-0.581-6.103,2.325-9.59,8.428-9.59
				h0.581c4.94,0,7.846,2.615,8.427,7.265l20.633,173.782l21.215-172.91c0.581-5.23,3.778-8.137,9.299-8.137h0.582
				c5.23,0,8.427,2.906,9.008,8.137l21.215,171.457l20.923-172.619c0.581-4.649,3.197-6.975,7.846-6.975h0.581
				c5.812,0,8.719,3.487,8.137,9.008l-25.283,187.15c-0.871,5.521-4.068,8.428-9.59,8.428h-5.231c-5.521,0-8.718-2.906-9.589-8.428
				l-18.89-154.312L50.518,522.457c-0.872,5.521-4.068,8.428-9.59,8.428H35.697z"/>
			<path fill="#FFFFFF" d="M224.01,530.884c-4.359,0-6.975-2.324-7.847-6.684l-4.94-32.258h-43.01l-4.939,32.258
				c-0.872,4.359-3.487,6.684-7.847,6.684h-0.581c-6.103,0-9.009-3.487-8.137-9.299l31.095-187.731
				c0.871-5.521,4.068-8.137,9.589-8.137h4.65c5.521,0,8.718,2.616,9.59,8.137l31.096,187.731c0.871,5.812-2.035,9.299-8.138,9.299
				H224.01z M208.608,475.669l-18.89-121.473l-19.18,121.473H208.608z"/>
			<path fill="#FFFFFF" d="M281.839,522.457c0,5.521-2.905,8.428-8.427,8.428h-0.581c-5.521,0-8.428-2.906-8.428-8.428V343.153
				h-24.992c-4.94,0-7.847-2.615-7.847-7.847v-0.581c0-4.94,2.906-7.846,7.847-7.846h67.42c4.94,0,7.846,2.906,7.846,7.846v0.581
				c0,5.231-2.906,7.847-7.846,7.847h-24.993V522.457z"/>
			<path fill="#FFFFFF" d="M330.656,336.469c0-6.103,3.197-9.589,9.589-9.589h44.753c4.94,0,7.847,2.906,7.847,7.846v0.581
				c0,5.231-2.906,7.847-7.847,7.847h-36.906v75.267h35.454c4.94,0,7.846,2.906,7.846,7.846v0.581c0,4.94-2.906,7.846-7.846,7.846
				h-35.454v79.336h37.488c4.939,0,7.846,2.614,7.846,7.846v0.581c0,4.941-2.906,7.846-7.846,7.846h-45.335
				c-6.393,0-9.589-3.487-9.589-9.589V336.469z"/>
			<path fill="#FFFFFF" d="M471.306,433.241c12.787,3.487,19.471,11.915,19.471,28.77v60.446c0,5.521-2.906,8.428-8.427,8.428
				h-0.582c-5.521,0-8.427-2.906-8.427-8.428v-59.864c0-14.53-6.975-21.214-21.796-21.214h-19.761v81.079
				c0,5.521-2.906,8.428-8.428,8.428h-0.581c-5.521,0-8.428-2.906-8.428-8.428V336.469c0-6.103,3.197-9.589,9.59-9.589h30.805
				c23.829,0,35.744,11.915,35.744,35.454v38.941C490.487,420.164,483.222,428.882,471.306,433.241z M473.051,361.462
				c0-12.496-6.103-18.309-18.889-18.309h-22.376v82.242h20.052c14.239,0,21.214-6.685,21.214-20.924V361.462z"/>
			<path fill="#FFFFFF" d="M622.417,326.298c5.23,0,8.428,2.906,8.428,8.428v161.576c0,23.539-11.915,35.744-36.035,35.744h-7.556
				c-23.829,0-35.744-12.205-35.744-35.744V334.726c0-5.521,3.197-8.428,8.427-8.428h0.581c5.522,0,8.428,2.906,8.428,8.428v162.158
				c0,12.787,6.393,18.889,19.18,18.889h6.103c12.786,0,19.18-6.103,19.18-18.889V334.726c0-5.521,2.906-8.428,8.428-8.428H622.417z
				"/>
			<path fill="#FFFFFF" d="M714.535,429.754c13.659,10.171,18.309,19.47,18.309,36.326v30.804c0,23.248-11.915,35.163-35.745,35.163
				h-6.393c-23.539,0-35.454-11.915-35.454-34.873v-34.582c0-5.231,2.906-8.137,8.428-8.137h0.581c5.231,0,8.137,2.905,8.137,8.137
				v35.163c0,12.206,6.394,18.018,18.89,18.018h5.231c12.496,0,18.889-5.812,18.889-18.018v-31.095
				c0-11.333-3.777-16.274-11.624-22.376l-29.933-22.377c-13.949-10.171-18.308-20.342-18.308-36.325v-25.283
				c0-23.249,11.624-35.164,35.744-35.164h5.521c23.539,0,35.454,11.915,35.454,34.873v28.479c0,5.231-2.906,8.137-8.428,8.137
				h-0.582c-5.231,0-8.137-2.905-8.137-8.137v-29.061c0-12.206-6.103-18.018-18.889-18.018h-4.359
				c-12.787,0-18.89,5.812-18.89,18.018v25.864c0,11.043,3.778,16.274,11.625,22.376L714.535,429.754z"/>
			<path fill="#FFFFFF" d="M757.25,336.469c0-6.103,3.197-9.589,9.589-9.589h44.753c4.94,0,7.847,2.906,7.847,7.846v0.581
				c0,5.231-2.907,7.847-7.847,7.847h-36.907v75.267h35.454c4.94,0,7.846,2.906,7.846,7.846v0.581c0,4.94-2.906,7.846-7.846,7.846
				h-35.454v79.336h37.488c4.94,0,7.846,2.614,7.846,7.846v0.581c0,4.941-2.906,7.846-7.846,7.846H766.84
				c-6.393,0-9.589-3.487-9.589-9.589V336.469z"/>
		</g>
		<g>
			<path fill="#CBCF2B" d="M76.941,183.538c1.018,0,1.697,0.679,1.697,1.697v13.233c0,1.018-0.678,1.696-1.697,1.696h-5.089
				c-0.679,0-1.018,0.17-1.527,1.019l-21.038,36.306v16.965c0,0.679,0.339,1.018,1.018,1.018H57.6c1.018,0,1.697,0.678,1.697,1.697
				v13.232c0,1.019-0.678,1.697-1.697,1.697H21.973c-1.018,0-1.696-0.678-1.696-1.697v-13.232c0-1.019,0.678-1.697,1.696-1.697
				h7.295c0.678,0,1.018-0.339,1.018-1.018v-16.965L9.249,201.012c-0.34-0.678-0.679-0.849-1.357-0.849h-5.09
				c-1.018,0-1.697-0.678-1.697-1.696v-13.233c0-1.018,0.679-1.697,1.697-1.697h31.895c1.018,0,1.697,0.679,1.697,1.697v12.894
				c0,1.018-0.679,1.696-1.697,1.696h-5.09c-0.848,0-1.188,0.509-0.848,1.188l11.197,20.189h0.509l11.367-20.019
				c0.509-0.848,0.17-1.357-0.678-1.357h-5.598c-1.018,0-1.697-0.679-1.697-1.696v-12.894c0-1.018,0.678-1.697,1.697-1.697H76.941z"
				/>
			<path fill="#CBCF2B" d="M164.317,205.253c1.697,5.769,2.545,12.555,2.545,22.564c0,10.009-0.848,16.796-2.545,22.564
				c-4.919,15.099-17.475,23.582-34.779,23.582c-17.475,0-30.028-8.483-34.949-23.582c-1.866-5.769-2.545-12.555-2.545-22.564
				c0-10.01,0.678-16.796,2.545-22.564c4.921-15.099,17.474-23.582,34.949-23.582C146.843,181.671,159.398,190.154,164.317,205.253z
				 M113.081,209.834c-1.356,4.073-1.696,8.652-1.696,17.984c0,9.5,0.339,14.082,1.697,18.153
				c2.714,7.635,8.991,11.028,16.456,11.028c7.295,0,13.742-3.393,16.287-11.028c1.357-4.071,1.696-8.652,1.696-18.153
				c0-9.332-0.339-13.911-1.696-17.984c-2.545-7.804-8.992-11.197-16.287-11.197C122.073,198.637,115.796,202.03,113.081,209.834z"
				/>
			<path fill="#CBCF2B" d="M274.257,183.538c1.018,0,1.696,0.679,1.696,1.697v13.233c0,1.018-0.679,1.696-1.696,1.696h-6.616
				c-0.679,0-1.019,0.339-1.019,1.019v37.325c0,22.563-14.081,35.458-35.628,35.458c-21.546,0-35.627-12.894-35.627-35.458v-37.325
				c0-0.679-0.339-1.019-1.018-1.019h-6.616c-1.018,0-1.697-0.678-1.697-1.696v-13.233c0-1.018,0.679-1.697,1.697-1.697h34.949
				c1.018,0,1.697,0.679,1.697,1.697v13.233c0,1.018-0.679,1.696-1.697,1.696h-7.295c-0.679,0-1.018,0.339-1.018,1.019v37.154
				c0,12.046,6.277,18.662,16.626,18.662c10.35,0,16.626-6.616,16.626-18.662v-37.154c0-0.679-0.339-1.019-1.018-1.019h-7.295
				c-1.018,0-1.696-0.678-1.696-1.696v-13.233c0-1.018,0.678-1.697,1.696-1.697H274.257z"/>
			<path fill="#CBCF2B" d="M340.595,183.538c19.002,0,31.387,11.027,31.387,27.314c0,11.537-6.107,20.02-16.966,24.431l7.974,19.171
				c0.339,0.848,0.848,1.018,1.696,1.018h6.617c1.018,0,1.696,0.678,1.696,1.697v13.232c0,1.019-0.679,1.697-1.696,1.697h-19.85
				c-1.357,0-1.866-0.339-2.545-1.357l-13.063-33.083h-12.385c-0.679,0-1.018,0.339-1.018,1.018v15.778
				c0,0.679,0.339,1.018,1.018,1.018h6.956c1.018,0,1.696,0.678,1.696,1.697v13.232c0,1.019-0.678,1.697-1.696,1.697h-35.289
				c-1.018,0-1.696-0.678-1.696-1.697v-13.232c0-1.019,0.679-1.697,1.696-1.697h7.295c0.68,0,1.019-0.339,1.019-1.018v-53.271
				c0-0.679-0.339-1.019-1.019-1.019h-7.295c-1.018,0-1.696-0.678-1.696-1.696v-13.233c0-1.018,0.679-1.697,1.696-1.697H340.595z
				 M323.461,200.334c-0.679,0-1.018,0.338-1.018,1.018v18.662c0,0.679,0.339,1.019,1.018,1.019h17.135
				c8.313,0,12.215-3.902,12.215-10.18c0-6.786-3.902-10.518-12.215-10.518H323.461z"/>
			<path fill="#CBCF2B" d="M467.838,184.386c16.626,0,27.145,6.786,31.217,19.34c1.357,4.241,2.205,9.5,2.205,24.6
				c0,14.93-0.848,20.02-2.375,24.6c-4.072,12.385-13.912,19.171-31.217,19.171H427.63c-1.019,0-1.696-0.678-1.696-1.697v-5.089
				c0-1.018,0.678-1.696,1.696-1.696h9.501c0.678,0,1.018-0.339,1.018-1.018v-68.711c0-0.678-0.34-1.017-1.018-1.017h-9.501
				c-1.019,0-1.696-0.679-1.696-1.697v-5.089c0-1.018,0.678-1.696,1.696-1.696H467.838z M448.327,193.208
				c-0.679,0-1.018,0.339-1.018,1.018v68.032c0,0.679,0.339,1.018,1.018,1.018h17.644c12.385,0,20.698-3.562,24.091-13.572
				c1.357-3.733,1.866-8.313,1.866-21.377c0-13.233-0.678-17.644-2.035-21.546c-3.224-10.01-11.537-13.572-23.922-13.572H448.327z"
				/>
			<path fill="#CBCF2B" d="M562.511,184.386c1.018,0,1.696,0.678,2.036,1.696l28.332,76.345c0.339,0.848,0.849,1.188,1.527,1.188
				h7.125c1.019,0,1.696,0.678,1.696,1.696v5.089c0,1.019-0.678,1.697-1.696,1.697h-29.52c-1.019,0-1.697-0.678-1.697-1.697v-5.089
				c0-1.018,0.679-1.696,1.697-1.696h10.518c0.68,0,1.188-0.509,0.849-1.188l-6.447-17.645h-36.645l-6.447,17.645
				c-0.34,0.848,0,1.188,0.679,1.188h10.688c1.017,0,1.696,0.678,1.696,1.696v5.089c0,1.019-0.679,1.697-1.696,1.697h-29.69
				c-1.018,0-1.696-0.678-1.696-1.697v-5.089c0-1.018,0.679-1.696,1.696-1.696h7.295c0.679,0,1.188-0.339,1.527-1.188l28.672-76.345
				c0.34-1.018,1.018-1.696,2.036-1.696H562.511z M543.51,236.301h30.199l-14.761-40.717h-0.339L543.51,236.301z"/>
			<path fill="#CBCF2B" d="M646.323,184.386c1.018,0,1.696,0.678,1.696,1.696v5.089c0,1.019-0.679,1.697-1.696,1.697h-9.501
				c-0.679,0-1.018,0.339-1.018,1.017v68.711c0,0.679,0.339,1.018,1.018,1.018h9.501c1.018,0,1.696,0.678,1.696,1.696v5.089
				c0,1.019-0.679,1.697-1.696,1.697h-30.199c-1.018,0-1.696-0.678-1.696-1.697v-5.089c0-1.018,0.679-1.696,1.696-1.696h9.501
				c0.679,0,1.018-0.339,1.018-1.018v-68.711c0-0.678-0.339-1.017-1.018-1.017h-9.501c-1.018,0-1.696-0.679-1.696-1.697v-5.089
				c0-1.018,0.679-1.696,1.696-1.696H646.323z"/>
			<path fill="#CBCF2B" d="M697.899,184.386c1.019,0,1.697,0.678,1.697,1.696v5.089c0,1.019-0.679,1.697-1.697,1.697h-9.5
				c-0.679,0-1.018,0.339-1.018,1.017v68.542c0,0.679,0.339,1.018,1.018,1.018h35.797c0.679,0,1.018-0.339,1.018-1.018v-10.858
				c0-1.018,0.68-1.696,1.697-1.696h5.429c1.019,0,1.697,0.678,1.697,1.696v18.832c0,1.019-0.679,1.697-1.697,1.697h-64.639
				c-1.018,0-1.696-0.678-1.696-1.697v-5.089c0-1.018,0.679-1.696,1.696-1.696h9.501c0.679,0,1.018-0.339,1.018-1.018v-68.711
				c0-0.678-0.339-1.017-1.018-1.017h-9.501c-1.018,0-1.696-0.679-1.696-1.697v-5.089c0-1.018,0.679-1.696,1.696-1.696H697.899z"/>
			<path fill="#CBCF2B" d="M812.08,184.386c1.019,0,1.696,0.678,1.696,1.696v5.089c0,1.019-0.678,1.697-1.696,1.697h-5.089
				c-0.679,0-1.019,0.169-1.527,1.017l-24.769,42.754v25.957c0,0.679,0.339,1.018,1.018,1.018h9.501
				c1.018,0,1.696,0.678,1.696,1.696v5.089c0,1.019-0.679,1.697-1.696,1.697h-30.199c-1.018,0-1.696-0.678-1.696-1.697v-5.089
				c0-1.018,0.679-1.696,1.696-1.696h9.501c0.678,0,1.018-0.339,1.018-1.018V236.64l-24.939-42.754
				c-0.339-0.848-0.679-1.017-1.357-1.017h-5.089c-1.018,0-1.697-0.679-1.697-1.697v-5.089c0-1.018,0.679-1.696,1.697-1.696h25.957
				c1.018,0,1.696,0.678,1.696,1.696v5.089c0,1.019-0.678,1.697-1.696,1.697h-8.482c-0.68,0-1.019,0.339-0.509,1.187l19.34,33.252
				h0.17l19.001-33.422c0.34-0.508,0.17-1.017-0.509-1.017h-8.312c-1.019,0-1.697-0.679-1.697-1.697v-5.089
				c0-1.018,0.678-1.696,1.697-1.696H812.08z"/>
		</g>
		<g>
			<g>
				<path fill="#FFFFFF" d="M0,9.481C0,5.02,2.789,2.045,7.436,2.045H72.5c5.019,0,8.18,3.346,8.18,7.622
					c0,4.461-3.16,7.808-8.18,7.808H17.66c-0.744,0-1.115,0.372-1.115,1.115v37.179c0,0.744,0.372,1.116,1.115,1.116h45.73
					c5.019,0,8.18,3.346,8.18,7.622c0,4.462-3.16,7.808-8.18,7.808H17.66c-0.744,0-1.115,0.372-1.115,1.116v38.48
					c0,0.743,0.372,1.115,1.115,1.115H72.5c5.019,0,8.18,3.346,8.18,7.622c0,4.461-3.16,7.807-8.18,7.807H7.436
					c-4.647,0-7.436-2.974-7.436-7.436V9.481z"/>
				<path fill="#FFFFFF" d="M108.34,118.602c-2.603-1.859-4.09-4.275-4.09-7.25c0-4.09,3.16-7.807,7.994-7.807
					c1.859,0,3.718,0.744,5.206,1.673c9.108,5.763,19.333,9.853,31.416,9.853c17.847,0,28.257-8.551,28.257-21.564
					c0-10.782-5.949-17.474-26.397-20.635l-6.135-0.929c-25.468-3.904-37.365-15.244-37.365-35.135
					C107.224,14.314,123.212,0,148.493,0c13.57,0,25.839,3.904,33.461,8.552c3.16,2.044,4.462,4.461,4.462,7.25
					c0,4.09-3.161,7.437-7.437,7.437c-1.673,0-3.718-0.744-5.391-1.487c-7.994-3.532-16.359-6.321-25.654-6.321
					c-15.987,0-23.98,8.737-23.98,20.449c0,10.596,6.507,17.288,26.212,20.263l6.134,0.929
					c25.468,3.904,37.551,15.244,37.551,35.506c0,21.936-15.615,37.923-46.288,37.923C131.205,130.5,117.262,124.737,108.34,118.602
					z"/>
				<path fill="#FFFFFF" d="M296.577,2.045c5.019,0,8.179,3.346,8.179,7.807c0,4.276-3.16,7.623-8.179,7.623h-29.186
					c-0.743,0-1.115,0.372-1.115,1.115v101.872c0,5.577-3.346,8.923-8.179,8.923c-5.019,0-8.366-3.346-8.366-8.923V18.59
					c0-0.743-0.372-1.115-1.115-1.115H219.43c-5.02,0-8.18-3.347-8.18-7.623c0-4.461,3.16-7.807,8.18-7.807H296.577z"/>
				<path fill="#FFFFFF" d="M328.941,10.039c0-5.577,3.346-8.923,8.365-8.923c4.833,0,8.18,3.346,8.18,8.923v110.423
					c0,5.577-3.347,8.923-8.18,8.923c-5.02,0-8.365-3.346-8.365-8.923V10.039z"/>
				<path fill="#FFFFFF" d="M378.369,11.34c0-6.32,3.532-10.224,9.295-10.224c5.019,0,7.808,2.975,10.41,8.923l34.949,79.006h0.558
					l34.391-79.006c2.603-5.948,5.205-8.923,10.225-8.923c5.763,0,9.294,3.904,9.294,10.224v109.679c0,5.205-3.16,8.365-7.808,8.365
					c-4.647,0-7.622-3.16-7.622-8.365V38.667h-0.558l-29,64.134c-2.975,6.507-5.391,8.18-9.667,8.18c-4.275,0-6.506-1.673-9.48-8.18
					l-29-64.134h-0.558v82.353c0,5.205-2.974,8.365-7.622,8.365s-7.808-3.16-7.808-8.365V11.34z"/>
				<path fill="#FFFFFF" d="M513.851,118.044l38.852-107.634c2.045-5.949,5.206-9.295,10.782-9.295
					c5.577,0,9.109,3.346,11.154,9.295l38.294,107.634c0.372,1.116,0.744,2.417,0.744,3.718c0,4.647-3.532,7.622-7.808,7.622
					c-3.718,0-6.692-2.045-7.994-5.949l-8.551-24.352H537.46l-8.551,24.352c-1.302,3.904-4.276,5.949-7.994,5.949
					c-4.275,0-7.808-2.974-7.808-7.622C513.107,120.461,513.479,119.16,513.851,118.044z M583.934,83.84l-20.077-57.442H563.3
					L542.85,83.84H583.934z"/>
				<path fill="#FFFFFF" d="M698.372,2.045c5.02,0,8.18,3.346,8.18,7.807c0,4.276-3.16,7.623-8.18,7.623h-29.186
					c-0.743,0-1.115,0.372-1.115,1.115v101.872c0,5.577-3.346,8.923-8.18,8.923c-5.019,0-8.365-3.346-8.365-8.923V18.59
					c0-0.743-0.372-1.115-1.115-1.115h-29.186c-5.02,0-8.18-3.347-8.18-7.623c0-4.461,3.16-7.807,8.18-7.807H698.372z"/>
				<path fill="#FFFFFF" d="M730.736,9.481c0-4.461,2.788-7.436,7.436-7.436h65.063c5.02,0,8.18,3.346,8.18,7.622
					c0,4.461-3.16,7.808-8.18,7.808h-54.839c-0.744,0-1.115,0.372-1.115,1.115v37.179c0,0.744,0.371,1.116,1.115,1.116h45.73
					c5.02,0,8.18,3.346,8.18,7.622c0,4.462-3.16,7.808-8.18,7.808h-45.73c-0.744,0-1.115,0.372-1.115,1.116v38.48
					c0,0.743,0.371,1.115,1.115,1.115h54.839c5.02,0,8.18,3.346,8.18,7.622c0,4.461-3.16,7.807-8.18,7.807h-65.063
					c-4.647,0-7.436-2.974-7.436-7.436V9.481z"/>
			</g>
		</g>
	</g>
</g>
</svg>
